<svg width="27" height="19" viewBox="0 0 27 19" fill="none" xmlns="http://www.w3.org/2000/svg">
<path fill-rule="evenodd" clip-rule="evenodd" d="M15.5412 11.5867V10.7105V0.876096C15.5412 0.394147 15.1469 0 14.665 0C14.183 0 13.7887 0.394147 13.7887 0.876096V18.1237C13.7887 18.6057 14.183 19 14.665 19C15.1469 19 15.5412 18.6057 15.5412 18.1237V14.7918V13.9156C15.5412 13.4336 15.9355 13.0393 16.4174 13.0393C16.8993 13.0393 17.2936 13.4336 17.2936 13.9156V14.2961C17.2936 14.778 17.6879 15.1723 18.1698 15.1723C18.6518 15.1723 19.0461 14.778 19.0461 14.2961V13.0741V12.1978C19.0461 11.7159 19.4403 11.3216 19.9223 11.3216C20.4042 11.3216 20.7985 11.7159 20.7985 12.1978V13.0741V16.0485C20.7985 16.5304 21.1927 16.9247 21.6746 16.9247C22.1566 16.9247 22.5509 16.5304 22.5509 16.0485V11.5406V10.6644C22.5509 10.1824 22.9452 9.78818 23.4271 9.78818C23.909 9.78818 24.3033 10.1824 24.3033 10.6644V11.5406V11.8519C24.3033 12.3338 24.6976 12.7281 25.1796 12.7281C25.6614 12.7281 26.0557 12.3338 26.0557 11.8519V7.14799C26.0557 6.66604 25.6614 6.2718 25.1796 6.2718C24.6976 6.2718 24.3033 6.66604 24.3033 7.14799V7.4593V8.3355C24.3033 8.81745 23.909 9.21169 23.4271 9.21169C22.9451 9.21169 22.5509 8.81745 22.5509 8.3355V7.4593V2.9514C22.5509 2.46943 22.1566 2.0752 21.6746 2.0752C21.1927 2.0752 20.7985 2.46943 20.7985 2.9514V8.9927V9.869C20.7985 10.3508 20.4042 10.7451 19.9223 10.7451C19.4403 10.7451 19.0461 10.3508 19.0461 9.869V8.9927V4.70379C19.0461 4.22184 18.6517 3.8276 18.1698 3.8276C17.6879 3.8276 17.2936 4.22184 17.2936 4.70379V10.7105V11.5867C17.2936 12.0687 16.8993 12.463 16.4174 12.463C15.9355 12.463 15.5412 12.0687 15.5412 11.5867ZM10.5145 7.41309V8.28939V18.1237C10.5145 18.6057 10.9088 19 11.3907 19C11.8726 19 12.2669 18.6057 12.2669 18.1237V0.876096C12.2669 0.394147 11.8726 0 11.3907 0C10.9088 0 10.5145 0.394147 10.5145 0.876096V4.20799V5.08429C10.5145 5.56616 10.1202 5.96048 9.6383 5.96048C9.15638 5.96048 8.76211 5.56616 8.76211 5.08429V4.70379C8.76211 4.22184 8.36776 3.8276 7.88584 3.8276C7.40394 3.8276 7.00969 4.22184 7.00969 4.70379V5.9259V6.8021C7.00969 7.28405 6.61537 7.6782 6.13344 7.6782C5.65155 7.6782 5.25725 7.28405 5.25725 6.8021V5.9259V2.9514C5.25725 2.46943 4.86295 2.0752 4.38105 2.0752C3.89908 2.0752 3.50481 2.46943 3.50481 2.9514V7.4593V8.3355C3.50481 8.81745 3.11051 9.21169 2.62859 9.21169C2.14669 9.21169 1.75239 8.81745 1.75239 8.3355V7.4593V7.14799C1.75239 6.66604 1.35809 6.2718 0.876146 6.2718C0.394247 6.2718 0 6.66604 0 7.14799V11.8519C0 12.3338 0.394247 12.7281 0.876146 12.7281C1.35809 12.7281 1.75239 12.3338 1.75239 11.8519V11.5406V10.6644C1.75239 10.1824 2.14669 9.78818 2.62859 9.78818C3.11051 9.78818 3.50481 10.1825 3.50481 10.6644V11.5406V16.0485C3.50481 16.5304 3.89908 16.9247 4.38105 16.9247C4.86295 16.9247 5.25725 16.5304 5.25725 16.0485V10.0072V9.131C5.25725 8.64903 5.65155 8.25468 6.13344 8.25468C6.61537 8.25468 7.00969 8.64903 7.00969 9.131V10.0072V14.2961C7.00969 14.778 7.40394 15.1723 7.88584 15.1723C8.36776 15.1723 8.76211 14.778 8.76211 14.2961V8.28939V7.41309C8.76211 6.93124 9.15638 6.537 9.6383 6.537C10.1202 6.537 10.5145 6.93124 10.5145 7.41309Z" fill="white"/>
</svg>
