<svg width="240" height="49" viewBox="0 0 240 49" fill="none" xmlns="http://www.w3.org/2000/svg">
<path d="M79.9171 15.6271C79.5112 15.7829 79.0752 15.939 79.0752 16.8743V26.7546C79.0752 33.7995 73.1531 35.4828 69.2568 35.4828C64.9863 35.4828 59.1576 34.9841 59.1576 27.5964V17.3415C59.1576 16.6559 58.7834 15.939 58.2534 15.7201L56.6016 15.066C56.6016 14.7852 56.6323 13.5077 56.7261 13.1653H67.5427C67.636 13.6325 67.636 14.8166 67.605 15.2223L65.516 15.5961C64.8931 15.7201 64.7058 16.0011 64.7058 16.5935V26.7546C64.7058 31.6177 68.0409 32.3654 70.5038 32.3654C72.7791 32.3654 75.179 31.3051 75.179 26.0071V17.591C75.179 16.8429 74.8674 15.8769 73.433 15.4712L72.0928 15.066C72.0928 14.7852 72.0305 13.5077 72.1245 13.1653H81.3506C81.4443 13.6325 81.5063 14.7233 81.4752 15.1281L79.9171 15.6271Z" fill="white"/>
<path d="M106.472 15.5961C105.787 15.9704 105.194 16.8429 105.194 17.7474V34.8905L101.111 36.1374L89.1415 19.9288H88.923L89.0483 22.4225V26.6929L89.1415 31.3991C89.1415 32.1479 89.2038 32.3973 89.8893 32.5838L92.539 33.3323C92.539 33.6126 92.5075 34.8594 92.3832 35.2021H83.0009C82.9074 34.7348 82.8451 33.7685 82.8763 33.3627L84.3722 32.9578C85.3387 32.7082 85.8374 31.1813 85.8686 30.1831L85.9309 26.6929V17.3726C85.9309 16.6868 85.5258 16.0636 85.0268 15.7829L83.1253 14.8166C83.1253 14.5365 83.0942 13.5077 83.1879 13.1653H90.4196L102.046 28.5003H102.264L102.077 25.2275V17.7782C102.077 16.9987 101.547 16.0951 100.924 15.7829L98.9601 14.8166C98.9601 14.5365 98.9601 13.5077 99.0846 13.1653H107.874C107.937 13.6325 108 14.3495 108 14.7541L106.472 15.5961Z" fill="white"/>
<path d="M120.059 35.2021H109.648C109.461 34.4543 109.555 33.9865 109.555 33.3005L110.677 32.9889C111.3 32.7703 112.142 32.2404 112.173 31.2437L112.266 26.443V17.3726C112.266 16.3442 111.269 15.8136 110.677 15.565L109.555 15.066C109.555 14.3803 109.461 13.9441 109.648 13.1653H120.183C120.246 13.975 120.215 14.6922 120.09 15.2845L118.719 15.6271C117.814 15.8769 117.596 16.7179 117.596 17.3105V26.443L117.659 31.7117C117.69 32.3033 117.814 32.4594 118.376 32.6466L120.277 33.0829C120.277 33.8309 120.277 34.3914 120.059 35.2021Z" fill="white"/>
<path d="M145.898 35.9508C143.155 36.2002 140.444 35.9508 137.825 33.7367C135.986 32.2098 134.365 29.4042 133.056 26.443L132.401 26.4743H129.939L130.033 31.3991C130.033 32.0225 130.157 32.3346 130.687 32.4898L132.62 33.1453C132.62 33.4253 132.62 34.8594 132.494 35.2021H121.897C121.835 34.7348 121.772 33.675 121.803 33.2695L123.299 32.9264C124.016 32.7703 124.484 31.8356 124.516 30.9938L124.608 26.6929V17.1545C124.608 16.6559 124.359 16.1258 123.861 15.9076L121.835 15.0971C121.803 14.8483 121.835 13.5706 121.99 13.1653H134.21C138.604 13.1653 142.625 14.8792 142.625 19.4924C142.625 21.6747 141.316 23.9806 138.791 25.3207C139.477 26.7546 140.444 28.6254 141.69 30.2463C142.906 31.8356 144.339 33.1453 146.054 33.488L145.898 35.9508ZM136.734 20.0225C136.734 17.1858 134.77 15.9076 131.28 15.9076H129.908V23.9183L132.183 23.8874C135.487 23.8564 136.703 22.7343 136.703 20.0225H136.734Z" fill="white"/>
<path d="M168.712 35.2028H158.863C158.613 34.5485 158.582 34.0498 158.582 33.177L160.234 32.5846C160.951 32.3351 161.262 31.8678 161.262 31.2444C161.262 30.8384 161.169 30.5275 161.014 30.091L159.953 26.8492H153.002L151.881 29.8107C151.725 30.278 151.662 30.6519 151.662 30.9949C151.662 32.0544 152.317 32.3664 152.816 32.5218L155.06 33.177C155.06 33.7693 155.06 34.5793 154.873 35.2028H146.363C146.208 34.6725 146.208 34.0187 146.208 33.333C146.924 32.6471 147.298 32.3351 147.704 31.4317L155.371 13.6954L160.265 12.6667L167.527 31.493C167.84 32.2413 168.401 32.8028 168.93 33.3634C168.93 34.112 168.9 34.5793 168.712 35.2028ZM157.585 19.6174L156.836 16.9372H156.65L155.777 19.5245L154 24.2618H159.112L157.585 19.6174Z" fill="white"/>
<path d="M194.269 15.5961C193.584 15.9704 192.992 16.8429 192.992 17.7474V34.8905L188.908 36.1374L176.939 19.9288H176.721L176.845 22.4225V26.6929L176.939 31.3991C176.939 32.1479 177.001 32.3973 177.687 32.5838L180.337 33.3323C180.337 33.6126 180.305 34.8594 180.181 35.2021H170.799C170.705 34.7348 170.643 33.7685 170.673 33.3627L172.17 32.9578C173.136 32.7082 173.635 31.1813 173.666 30.1831L173.728 26.6929V17.3726C173.728 16.6868 173.323 16.0636 172.824 15.7829L170.923 14.8166C170.923 14.5365 170.892 13.5077 170.986 13.1653H178.216L189.843 28.5003H190.062L189.874 25.2275V17.7782C189.874 16.9987 189.344 16.0951 188.722 15.7829L186.757 14.8166C186.757 14.5365 186.757 13.5077 186.882 13.1653H195.672C195.734 13.6325 195.797 14.3495 195.797 14.7541L194.269 15.5961Z" fill="white"/>
<path d="M219.982 35.5758C218.61 35.5758 214.402 35.3265 212.034 32.6466L205.395 25.134V26.443L205.457 31.7117C205.488 32.3033 205.581 32.5212 206.173 32.6466L208.075 33.0829C208.075 33.8309 208.075 34.3914 207.857 35.2021H197.446C197.321 34.5163 197.353 33.9865 197.353 33.3005L198.475 32.9889C199.098 32.7703 199.94 32.2404 199.971 31.2437L200.064 26.443V17.3726C200.064 16.3442 199.067 15.8136 198.475 15.565L197.353 15.066C197.353 14.3803 197.321 13.8815 197.477 13.1653H207.982C208.044 13.975 208.013 14.6922 207.888 15.2845L206.517 15.6271C205.613 15.8457 205.395 16.7179 205.395 17.3105V23.7936L211.566 17.9028C211.878 17.6222 212.034 17.248 212.034 16.9054C212.034 16.3128 211.784 15.7829 211.411 15.5961L210.538 15.1281C210.538 14.4114 210.506 13.9441 210.694 13.1653H219.515V14.6922L209.914 23.0458L214.434 27.6593C216.335 29.6228 218.299 31.5549 220.512 33.0829L219.982 35.5758Z" fill="white"/>
<path d="M229.674 35.5456C227.149 35.5456 223.783 35.0153 221.601 33.6755L222.193 28.0339H224.437C224.686 31.0882 227.243 32.709 230.141 32.709C231.357 32.709 233.788 32.241 233.788 30.6203C233.788 29.3737 231.949 28.5636 229.736 27.5657C226.526 26.1324 222.567 24.3556 222.567 20.2721C222.567 16.2513 226.93 12.9474 230.765 12.9474C233.352 12.9474 236.157 13.5085 238.277 14.5373V19.3682H236.25C235.627 16.8747 233.227 15.9085 230.859 15.9085C229.175 15.9085 227.523 16.4383 227.523 18.4017C227.523 19.7424 229.86 20.6148 232.448 21.7373C235.69 23.1399 239.306 24.8854 239.306 28.4386C239.306 33.5196 234.006 35.5456 229.674 35.5456Z" fill="white"/>
<path d="M23.95 18.4565C23.6887 18.5567 23.4071 18.6574 23.4071 19.2605V25.6341C23.4071 30.178 19.5868 31.2636 17.0736 31.2636C14.3191 31.2636 10.5594 30.9421 10.5594 26.1769V19.5622C10.5594 19.1195 10.3179 18.6574 9.9762 18.5165L8.91064 18.0943C8.91064 17.9135 8.93066 17.0893 8.99097 16.8681H15.9677C16.0283 17.1693 16.0283 17.9335 16.0081 18.195L14.6609 18.4361C14.2588 18.5165 14.1382 18.6974 14.1382 19.0798V25.6341C14.1382 28.7704 16.2896 29.2531 17.8781 29.2531C19.3453 29.2531 20.8938 28.5694 20.8938 25.1515V19.7227C20.8938 19.2403 20.6927 18.6169 19.7676 18.3556L18.9033 18.0943C18.9033 17.9135 18.8629 17.0893 18.9235 16.8681H24.8748C24.9349 17.1693 24.9752 17.8731 24.9552 18.1344L23.95 18.4565Z" fill="white"/>
<path d="M41.3818 31.5652C39.6126 31.7262 37.8633 31.5652 36.1742 30.1376C34.9884 29.1525 33.9427 27.3431 33.0982 25.4327L32.676 25.453H31.0876L31.1483 28.6297C31.1483 29.0318 31.2284 29.2328 31.5702 29.3335L32.8167 29.7558C32.8167 29.9364 32.8167 30.8616 32.7362 31.0829H25.9001C25.8601 30.7812 25.8202 30.0975 25.8399 29.8362L26.805 29.6149C27.2673 29.5142 27.5689 28.9113 27.5892 28.3684L27.6495 25.5937V19.4413C27.6495 19.1195 27.4886 18.7777 27.167 18.6371L25.8601 18.1145C25.8399 17.9535 25.8601 17.1293 25.9605 16.8681H33.842C36.677 16.8681 39.2709 17.9737 39.2709 20.9495C39.2709 22.3567 38.4264 23.8446 36.7979 24.7091C37.2401 25.6341 37.8633 26.8402 38.6675 27.8859C39.4516 28.9113 40.3763 29.7558 41.4826 29.977L41.3818 31.5652ZM35.4708 21.2913C35.4708 19.4615 34.2041 18.6371 31.9524 18.6371H31.0677V23.8042L32.5351 23.7842C34.6668 23.7641 35.4507 23.0402 35.4507 21.2913H35.4708Z" fill="white"/>
<path d="M25.2094 6.25739H25.1832C15.2731 6.26569 7.21191 14.3298 7.21191 24.2418C7.21191 34.1585 15.2795 42.2258 25.1964 42.2258C35.1132 42.2258 43.1807 34.1585 43.1807 24.2418C43.1807 14.3298 35.12 6.26569 25.2094 6.25739ZM35.9403 11.0765C34.8264 11.3876 33.6161 11.6468 32.337 11.8499C31.4048 10.0562 30.2827 8.63751 29.0408 7.67926C31.613 8.2757 33.9618 9.45831 35.9403 11.0765ZM25.6879 7.26984C27.8042 7.49921 29.7946 9.20929 31.3096 12.0008C29.5257 12.2363 27.6273 12.3692 25.6879 12.389V7.26984ZM21.3518 7.67926C20.1101 8.63751 18.988 10.0562 18.0562 11.8517C16.7751 11.6468 15.5662 11.3876 14.4525 11.0765C16.4315 9.45831 18.7802 8.2757 21.3518 7.67926ZM24.7051 7.26984V12.3873C22.7638 12.3692 20.8671 12.2363 19.0831 12.0008C20.5985 9.20929 22.5886 7.49921 24.7051 7.26984ZM14.4525 37.4067C15.5662 37.0971 16.7767 36.8367 18.0562 36.6336C18.988 38.429 20.1121 39.846 21.3518 40.8044C18.7818 40.2079 16.4315 39.0252 14.4525 37.4067ZM24.7051 41.2137C22.5901 40.9829 20.5985 39.2742 19.0831 36.483C20.8671 36.2471 22.7638 36.1144 24.7051 36.0964V41.2137ZM29.0408 40.8044C30.281 39.846 31.4048 38.429 32.337 36.6336C33.6161 36.8367 34.8264 37.0971 35.9403 37.4067C33.9618 39.0252 31.613 40.2079 29.0408 40.8044ZM25.6879 41.2137V36.0964C27.6273 36.1144 29.5257 36.2471 31.3096 36.483C29.7946 39.2742 27.8042 40.9829 25.6879 41.2137ZM36.8169 36.6403C35.5865 36.2637 34.2286 35.9525 32.7821 35.7115C33.1817 34.8268 33.5391 33.869 33.8436 32.8384H32.8167C32.5137 33.8177 32.1649 34.7253 31.7766 35.556C29.85 35.2855 27.7927 35.1331 25.6879 35.1133V32.8384H24.7051V35.1133C22.5984 35.1331 20.5411 35.284 18.6165 35.556C18.2283 34.7253 17.8793 33.8177 17.576 32.8384H16.5491C16.8538 33.869 17.2109 34.8268 17.6105 35.7115C16.1641 35.9525 14.8077 36.2637 13.5762 36.6403C10.267 33.536 8.19482 29.1264 8.19482 24.2418C8.19482 19.3569 10.267 14.9475 13.5762 11.845C14.8077 12.22 16.1641 12.5312 17.6105 12.772C17.2109 13.6567 16.8538 14.6148 16.5491 15.6453H17.576C17.8793 14.6656 18.2283 13.758 18.6165 12.9277C20.5411 13.1996 22.5984 13.3505 24.7051 13.3699V15.6453H25.6879V13.3715C27.7927 13.3505 29.85 13.1996 31.7766 12.9277C32.1649 13.758 32.5137 14.6656 32.8167 15.6453H33.8436C33.5391 14.6148 33.1817 13.6567 32.7821 12.772C34.2286 12.5312 35.5865 12.22 36.8169 11.845C40.1257 14.9475 42.1978 19.3569 42.1978 24.2418C42.1978 29.1264 40.1257 33.536 36.8169 36.6403Z" fill="white"/>
<path d="M5.16718 23.4487L3.55048 24.6024L4.18042 26.4858L2.58368 25.305L0.987 26.4858L1.61682 24.6024L0 23.4487L1.98608 23.4659L2.58368 21.5718L3.18127 23.4659L5.16718 23.4487Z" fill="white"/>
<path d="M9.54163 37.3383L7.92499 38.4916L8.55475 40.3752L6.95789 39.1942L5.36133 40.3752L5.99115 38.4916L4.37451 37.3383L6.36047 37.3551L6.95789 35.4611L7.55548 37.3551L9.54163 37.3383Z" fill="#B1B1B1"/>
<path d="M19.7149 4.91418L18.1182 3.73315L16.5214 4.91418L17.1513 3.03052L15.5347 1.87708L17.5206 1.89404L18.1182 0L18.7156 1.89404L20.7015 1.87708L19.085 3.03052L19.7149 4.91418Z" fill="white"/>
<path d="M41.838 13.0223L42.4678 11.1389L40.8511 9.98521L42.8371 10.0021L43.4348 8.10814L44.0323 10.0021L46.0183 9.98521L44.4016 11.1389L45.0314 13.0223L43.4348 11.8413L41.838 13.0223Z" fill="white"/>
<path d="M40.9629 36.5681L42.949 36.5849L43.5465 34.691L44.1441 36.5849L46.13 36.5681L44.5134 37.7216L45.1434 39.6052L43.5465 38.424L41.9498 39.6052L42.5796 37.7216L40.9629 36.5681Z" fill="white"/>
<path d="M18.2991 43.012L18.8967 44.9059L20.8827 44.889L19.2661 46.0426L19.8959 47.9261L18.2991 46.7452L16.7025 47.9261L17.3322 46.0426L15.7156 44.889L17.7017 44.9059L18.2991 43.012Z" fill="white"/>
<path d="M32.2747 43.5692L32.8721 45.4632L34.858 45.4462L33.2415 46.5999L33.8712 48.4834L32.2747 47.3023L30.6777 48.4834L31.3076 46.5999L29.6909 45.4462L31.677 45.4632L32.2747 43.5692Z" fill="#B1B1B1"/>
<path d="M47.8091 21.9974L48.4067 23.8915L50.3927 23.8745L48.7761 25.0281L49.4058 26.9118L47.8091 25.7306L46.2124 26.9118L46.8422 25.0281L45.2256 23.8745L47.2114 23.8915L47.8091 21.9974Z" fill="#B1B1B1"/>
<path d="M32.0938 0.557189L32.6913 2.45123L34.6772 2.43439L33.0605 3.58783L33.6903 5.47125L32.0938 4.29034L30.497 5.47125L31.1268 3.58783L29.51 2.43439L31.496 2.45123L32.0938 0.557189Z" fill="#B1B1B1"/>
<path d="M6.84607 8.87819L7.4436 10.7721L9.42969 10.7551L7.81299 11.909L8.44287 13.7923L6.84607 12.6112L5.24951 13.7923L5.87927 11.909L4.2627 10.7551L6.24854 10.7721L6.84607 8.87819Z" fill="#B1B1B1"/>
</svg>
