<svg width="347" height="18" viewBox="0 0 347 18" fill="none" xmlns="http://www.w3.org/2000/svg">
<path d="M122.327 2.20032C122.025 2.31604 121.701 2.43213 121.701 3.12695V10.4697C121.701 15.7048 117.3 16.9557 114.405 16.9557C111.231 16.9557 106.899 16.5852 106.899 11.095V3.47437C106.899 2.96472 106.622 2.43213 106.228 2.26965L105 1.78333C105 1.57471 105.023 0.625366 105.092 0.370728H113.131C113.2 0.717896 113.2 1.5979 113.177 1.89941L111.625 2.17725C111.162 2.26965 111.023 2.47827 111.023 2.91846V10.4697C111.023 14.0831 113.501 14.6392 115.331 14.6392C117.022 14.6392 118.805 13.8512 118.805 9.91406V3.65967C118.805 3.10388 118.574 2.38586 117.508 2.08447L116.512 1.78333C116.512 1.57471 116.466 0.625366 116.536 0.370728H123.392C123.461 0.717896 123.508 1.52856 123.484 1.82959L122.327 2.20032Z" fill="white"/>
<path d="M142.06 2.17725C141.551 2.4552 141.11 3.10388 141.11 3.77576V16.5156L138.076 17.4421L129.181 5.39697H129.019L129.112 7.25012V10.4236L129.181 13.921C129.181 14.4773 129.227 14.6627 129.737 14.8014L131.706 15.3577C131.706 15.5658 131.683 16.4923 131.59 16.7471H124.618C124.549 16.3998 124.502 15.6819 124.526 15.3804L125.637 15.0795C126.355 14.8939 126.726 13.7592 126.749 13.0175L126.795 10.4236V3.49731C126.795 2.98779 126.494 2.52454 126.123 2.31604L124.71 1.5979C124.71 1.38989 124.687 0.625366 124.757 0.370728H130.131L138.771 11.7667H138.933L138.794 9.33472V3.79883C138.794 3.21948 138.4 2.5481 137.937 2.31604L136.478 1.5979C136.478 1.38989 136.478 0.625366 136.57 0.370728H143.102C143.149 0.717896 143.195 1.25073 143.195 1.55164L142.06 2.17725Z" fill="white"/>
<path d="M152.158 16.7471H144.421C144.282 16.1914 144.352 15.8436 144.352 15.3341L145.185 15.1024C145.648 14.9402 146.274 14.5461 146.297 13.8054L146.367 10.2382V3.49731C146.367 2.73315 145.625 2.33911 145.185 2.15405L144.352 1.78333C144.352 1.2738 144.282 0.949585 144.421 0.370728H152.25C152.296 0.972656 152.273 1.50537 152.181 1.94568L151.162 2.20032C150.49 2.38586 150.327 3.01086 150.327 3.45105V10.2382L150.374 14.1532C150.397 14.5929 150.49 14.709 150.907 14.8481L152.319 15.1722C152.319 15.7281 152.319 16.1447 152.158 16.7471Z" fill="white"/>
<path d="M171.359 17.3033C169.321 17.4888 167.306 17.3033 165.359 15.6581C163.993 14.5234 162.789 12.4386 161.816 10.2382L161.329 10.2612H159.499L159.569 13.921C159.569 14.3843 159.661 14.6161 160.055 14.7317L161.491 15.2185C161.491 15.4266 161.491 16.4923 161.399 16.7471H153.523C153.477 16.3998 153.43 15.6121 153.453 15.3109L154.565 15.0562C155.098 14.9402 155.446 14.2452 155.469 13.6199L155.538 10.4236V3.33557C155.538 2.96472 155.353 2.5708 154.982 2.40894L153.477 1.8064C153.453 1.62146 153.477 0.671875 153.593 0.370728H162.673C165.939 0.370728 168.927 1.64453 168.927 5.07288C168.927 6.69434 167.954 8.40808 166.078 9.40393C166.588 10.4697 167.306 11.8597 168.232 13.0642C169.135 14.2452 170.201 15.2185 171.475 15.4733L171.359 17.3033ZM164.549 5.46667C164.549 3.35864 163.089 2.40894 160.496 2.40894H159.476V8.36169L161.167 8.33862C163.622 8.31555 164.526 7.48181 164.526 5.46667H164.549Z" fill="white"/>
<path d="M188.313 16.7473H180.993C180.808 16.2609 180.785 15.8905 180.785 15.2416L182.012 14.8015C182.545 14.6162 182.777 14.2689 182.777 13.8055C182.777 13.504 182.707 13.2728 182.592 12.9482L181.804 10.5392H176.639L175.805 12.7401C175.689 13.0874 175.642 13.3654 175.642 13.6201C175.642 14.4076 176.129 14.6392 176.5 14.7549L178.168 15.2416C178.168 15.6819 178.168 16.2838 178.029 16.7473H171.704C171.589 16.3533 171.589 15.8673 171.589 15.3577C172.121 14.8481 172.399 14.6162 172.701 13.9447L178.399 0.764282L182.036 0L187.432 13.9905C187.665 14.5463 188.081 14.9637 188.475 15.3804C188.475 15.9366 188.452 16.2838 188.313 16.7473ZM180.044 5.16528L179.487 3.17334H179.349L178.7 5.09595L177.38 8.61658H181.179L180.044 5.16528Z" fill="white"/>
<path d="M207.305 2.17725C206.796 2.4552 206.356 3.10388 206.356 3.77576V16.5156L203.321 17.4421L194.427 5.39697H194.264L194.357 7.25012V10.4236L194.427 13.921C194.427 14.4773 194.473 14.6627 194.983 14.8014L196.951 15.3577C196.951 15.5658 196.928 16.4923 196.836 16.7471H189.864C189.794 16.3998 189.748 15.6819 189.77 15.3804L190.883 15.0795C191.601 14.8939 191.971 13.7592 191.995 13.0175L192.04 10.4236V3.49731C192.04 2.98779 191.74 2.52454 191.369 2.31604L189.956 1.5979C189.956 1.38989 189.933 0.625366 190.003 0.370728H195.376L204.016 11.7667H204.179L204.039 9.33472V3.79883C204.039 3.21948 203.645 2.5481 203.183 2.31604L201.723 1.5979C201.723 1.38989 201.723 0.625366 201.816 0.370728H208.348C208.394 0.717896 208.44 1.25073 208.44 1.55164L207.305 2.17725Z" fill="white"/>
<path d="M226.414 17.0249C225.394 17.0249 222.267 16.8396 220.507 14.8481L215.573 9.26514V10.2382L215.619 14.1532C215.643 14.5929 215.712 14.7548 216.152 14.8481L217.565 15.1722C217.565 15.7281 217.565 16.1447 217.403 16.7471H209.667C209.574 16.2375 209.597 15.8436 209.597 15.3341L210.431 15.1024C210.894 14.9402 211.519 14.5461 211.542 13.8054L211.612 10.2382V3.49731C211.612 2.73315 210.871 2.33911 210.431 2.15405L209.597 1.78333C209.597 1.2738 209.574 0.902954 209.689 0.370728H217.496C217.542 0.972656 217.519 1.50537 217.426 1.94568L216.407 2.20032C215.735 2.36267 215.573 3.01086 215.573 3.45105V8.26929L220.16 3.89136C220.391 3.68298 220.507 3.40491 220.507 3.15015C220.507 2.70996 220.322 2.31604 220.044 2.17725L219.395 1.82959C219.395 1.29675 219.372 0.949585 219.511 0.370728H226.066V1.50537L218.932 7.7135L222.291 11.1417C223.704 12.601 225.163 14.0367 226.807 15.1722L226.414 17.0249Z" fill="white"/>
<path d="M233.616 17.0022C231.739 17.0022 229.238 16.608 227.616 15.6122L228.056 11.4197H229.724C229.909 13.6896 231.809 14.894 233.963 14.894C234.866 14.894 236.673 14.5463 236.673 13.3419C236.673 12.4156 235.307 11.8136 233.662 11.0719C231.276 10.0066 228.334 8.68652 228.334 5.65186C228.334 2.66382 231.577 0.208618 234.427 0.208618C236.349 0.208618 238.434 0.62561 240.009 1.39001V4.97998H238.503C238.04 3.1272 236.256 2.40906 234.496 2.40906C233.245 2.40906 232.017 2.80298 232.017 4.26184C232.017 5.2583 233.754 5.90662 235.677 6.74072C238.087 7.78296 240.773 9.08008 240.773 11.7207C240.773 15.4966 236.835 17.0022 233.616 17.0022Z" fill="white"/>
<path d="M262.104 16.4053L257.099 12.703L252.093 16.4053L254.068 10.5007L249 6.8844L255.226 6.93762L257.099 1L258.972 6.93762L265.198 6.8844L260.13 10.5007L262.104 16.4053Z" fill="white"/>
<path d="M277.417 1L279.29 6.93713L285.516 6.88416L280.448 10.5002L282.422 16.4049L277.417 12.7023L272.412 16.4049L274.386 10.5002L269.318 6.88416L275.544 6.93713L277.417 1Z" fill="#B1B1B1"/>
<path d="M302.744 16.4053L297.739 12.703L292.733 16.4053L294.707 10.5007L289.64 6.8844L295.865 6.93762L297.739 1L299.612 6.93762L305.838 6.8844L300.77 10.5007L302.744 16.4053Z" fill="white"/>
<path d="M318.056 1L319.929 6.93713L326.155 6.88416L321.087 10.5002L323.062 16.4049L318.056 12.7023L313.051 16.4049L315.025 10.5002L309.957 6.88416L316.183 6.93713L318.056 1Z" fill="#B1B1B1"/>
<path d="M343.383 16.4053L338.378 12.703L333.372 16.4053L335.347 10.5007L330.279 6.8844L336.505 6.93762L338.378 1L340.251 6.93762L346.477 6.8844L341.409 10.5007L343.383 16.4053Z" fill="white"/>
<path d="M13.1044 16.4053L8.09906 12.703L3.09344 16.4053L5.06775 10.5007L0 6.8844L6.22577 6.93762L8.09906 1L9.97229 6.93762L16.1979 6.8844L11.1301 10.5007L13.1044 16.4053Z" fill="white"/>
<path d="M28.4169 1L30.2903 6.93713L36.5161 6.88416L31.448 10.5002L33.4225 16.4049L28.4169 12.7023L23.4116 16.4049L25.3861 10.5002L20.3179 6.88416L26.5436 6.93713L28.4169 1Z" fill="#B1B1B1"/>
<path d="M53.7441 16.4053L48.7387 12.703L43.7331 16.4053L45.7074 10.5007L40.6396 6.8844L46.8654 6.93762L48.7387 1L50.6119 6.93762L56.8375 6.8844L51.7698 10.5007L53.7441 16.4053Z" fill="white"/>
<path d="M69.056 1L70.9294 6.93713L77.1553 6.88416L72.0872 10.5002L74.0616 16.4049L69.056 12.7023L64.0508 16.4049L66.0253 10.5002L60.957 6.88416L67.1827 6.93713L69.056 1Z" fill="#B1B1B1"/>
<path d="M94.3832 16.4053L89.3779 12.703L84.3723 16.4053L86.3466 10.5007L81.2788 6.8844L87.5046 6.93762L89.3779 1L91.2511 6.93762L97.4767 6.8844L92.4089 10.5007L94.3832 16.4053Z" fill="white"/>
</svg>
